<svg clip-rule="evenodd" fill-rule="evenodd" stroke-linejoin="round" stroke-miterlimit="2" viewBox="0 0 560 400" xmlns="http://www.w3.org/2000/svg"><path d="m76.773 11.917v23.046h8.338v3.976h-12.778v-27.022zm24.01 11.465v-2.432h4.208v17.99h-4.207v-2.433c-.567.901-1.37 1.609-2.413 2.123-1.042.515-2.091.772-3.146.772-1.365 0-2.613-.25-3.745-.752-1.103-.481-2.096-1.184-2.915-2.066-.812-.877-1.453-1.898-1.89-3.01-.456-1.156-.685-2.388-.677-3.63 0-1.26.225-2.464.676-3.61.434-1.12 1.076-2.148 1.891-3.03.82-.881 1.812-1.584 2.915-2.065 1.132-.502 2.38-.752 3.745-.752 1.055 0 2.104.257 3.146.772s1.845 1.222 2.412 2.123zm-.386 8.763c.259-.704.39-1.449.387-2.2 0-.773-.13-1.506-.387-2.2-.241-.668-.608-1.284-1.08-1.815-.471-.52-1.043-.941-1.68-1.236-.656-.308-1.383-.463-2.18-.463-.799 0-1.52.155-2.163.463-.629.299-1.193.719-1.66 1.236-.471.528-.831 1.145-1.06 1.814-.247.707-.372 1.451-.368 2.2 0 .772.122 1.506.367 2.2.244.696.598 1.3 1.062 1.815.466.518 1.03.938 1.66 1.236.642.309 1.363.463 2.161.463s1.525-.154 2.181-.463c.637-.295 1.209-.715 1.68-1.236.472-.53.839-1.146 1.08-1.814zm7.914 6.796v-17.991h11.427v4.141h-7.22v13.85zm26.675-15.559v-2.432h4.208v17.99h-4.208v-2.433c-.566.901-1.37 1.609-2.413 2.123-1.042.515-2.09.772-3.146.772-1.364 0-2.612-.25-3.744-.752-1.103-.481-2.096-1.184-2.915-2.066-.812-.877-1.454-1.898-1.891-3.01-.455-1.156-.685-2.388-.676-3.63 0-1.26.225-2.464.676-3.61.434-1.12 1.075-2.148 1.89-3.03.82-.881 1.813-1.584 2.916-2.065 1.132-.502 2.38-.752 3.744-.752 1.055 0 2.104.257 3.146.772 1.043.515 1.847 1.222 2.413 2.123zm-.386 8.763c.259-.704.39-1.449.386-2.2 0-.773-.13-1.506-.386-2.2-.241-.668-.608-1.284-1.08-1.815-.471-.52-1.043-.941-1.68-1.236-.656-.308-1.384-.463-2.181-.463-.798 0-1.519.155-2.162.463-.629.299-1.193.719-1.66 1.236-.471.528-.832 1.145-1.061 1.814-.247.707-.371 1.451-.367 2.2 0 .772.121 1.506.367 2.2.244.696.598 1.3 1.061 1.815.466.518 1.031.938 1.66 1.236.643.309 1.364.463 2.162.463.797 0 1.525-.154 2.181-.463.637-.295 1.209-.715 1.68-1.236.472-.53.839-1.146 1.08-1.814zm21.463-11.195h4.262l-6.905 17.99h-5.29l-6.906-17.99h4.262l5.289 13.776zm13.44-.463c5.729 0 9.636 5.078 8.902 11.021h-13.959c0 1.552 1.567 4.552 5.288 4.552 3.2 0 5.345-2.815 5.346-2.817l2.843 2.2c-2.542 2.713-4.623 3.96-7.882 3.96-5.823 0-9.77-3.684-9.77-9.458 0-5.223 4.08-9.458 9.232-9.458zm-5.046 7.894h10.084c-.031-.346-.578-4.552-5.072-4.552-4.495 0-4.98 4.206-5.012 4.552zm16.688 10.558v-27.022h4.208v27.022zm-131.632-27.401c.018.067.028.138.028.208v10.947c0 .141-.037.279-.108.4-.07.122-.171.223-.293.293l-9.188 5.289v10.486c0 .285-.152.548-.399.692l-19.179 11.041c-.044.025-.092.041-.14.058-.018.006-.035.017-.054.022-.134.035-.275.035-.409 0-.022-.006-.042-.018-.063-.026-.044-.016-.09-.03-.132-.054l-19.175-11.041c-.122-.07-.223-.171-.293-.292-.071-.122-.108-.26-.108-.4v-32.842c0-.071.01-.141.028-.209.006-.023.02-.044.028-.067.015-.042.029-.085.051-.124.015-.026.037-.047.055-.07.023-.032.044-.065.07-.093.023-.023.053-.04.079-.06.029-.024.055-.05.088-.069l9.589-5.52c.122-.07.259-.107.399-.107s.278.037.399.107l9.589 5.52h.002c.031.02.058.045.087.068.026.02.055.038.078.06.028.029.048.062.072.094.017.023.04.044.054.07.023.04.036.082.052.124.008.023.022.044.028.068.018.068.027.138.028.208v20.513l7.989-4.601v-10.486c0-.07.01-.141.028-.207.007-.024.02-.045.028-.068.016-.042.03-.085.052-.124.015-.026.037-.047.054-.071.024-.032.044-.065.072-.093.023-.023.052-.04.078-.059.03-.024.056-.05.087-.069l9.591-5.521c.121-.07.259-.107.399-.107s.277.037.399.107l9.588 5.521c.034.02.06.045.09.067.025.02.054.038.076.06.028.029.048.062.072.094.018.024.04.045.054.071.023.039.036.082.052.124.009.023.022.044.028.068zm-34.97 18.881 4.634-2.667v-20.051l-3.355 1.932-4.635 2.669v20.05zm-4.157-28.698-7.986 4.598 7.986 4.599 7.988-4.6-7.986-4.597zm37.558 20.51-.001-9.103-3.356 1.932-4.635 2.668v9.104zm-9.589 16.468v-9.11l-4.56 2.604-13.02 7.431v9.195zm-36.757-30.998v30.998l17.578 10.119v-9.193l-9.183-5.197-.003-.002-.004-.002c-.031-.018-.057-.044-.086-.066-.025-.019-.053-.035-.075-.057l-.002-.003c-.026-.025-.044-.056-.066-.084-.02-.027-.044-.05-.06-.078l-.001-.003c-.018-.03-.029-.066-.042-.1-.013-.03-.03-.058-.038-.09-.01-.037-.012-.078-.016-.117-.004-.03-.012-.06-.012-.09v-21.434l-4.634-2.67zm37.556-.553-7.988 4.598 7.988 4.599 7.986-4.6zm-19.18 31.095 11.717-6.689 5.856-3.342-7.981-4.596-9.19 5.291-8.376 4.822zm18.381-20.515-4.636-2.668-3.355-1.932v9.103l4.634 2.668 3.357 1.933z" fill="#ff2d20" transform="matrix(1.94224 0 0 1.94224 100 150.473)"/></svg>